<mxfile host="app.diagrams.net" modified="2020-12-11T08:54:55.893Z" agent="5.0 (Macintosh; Intel Mac OS X 11_0_0) AppleWebKit/537.36 (KHTML, like Gecko) Chrome/86.0.4240.198 Safari/537.36" etag="Pjcxpq-cNzH5orJKonMP" version="13.10.0" type="github">
  <diagram id="vjTfA5BNvJq1l5fDXRYV" name="Page-1">
    <mxGraphModel dx="786" dy="514" grid="1" gridSize="10" guides="1" tooltips="1" connect="1" arrows="1" fold="1" page="1" pageScale="1" pageWidth="827" pageHeight="1169" math="0" shadow="0">
      <root>
        <mxCell id="0" />
        <mxCell id="1" parent="0" />
        <mxCell id="1w_yLTOK1MW38-RyeeTR-6" style="edgeStyle=orthogonalEdgeStyle;rounded=0;orthogonalLoop=1;jettySize=auto;html=1;exitX=1;exitY=0.5;exitDx=0;exitDy=0;entryX=0;entryY=0.5;entryDx=0;entryDy=0;" edge="1" parent="1" source="1w_yLTOK1MW38-RyeeTR-1" target="1w_yLTOK1MW38-RyeeTR-5">
          <mxGeometry relative="1" as="geometry" />
        </mxCell>
        <mxCell id="1w_yLTOK1MW38-RyeeTR-15" style="edgeStyle=orthogonalEdgeStyle;rounded=0;orthogonalLoop=1;jettySize=auto;html=1;exitX=0.5;exitY=1;exitDx=0;exitDy=0;entryX=1;entryY=0.5;entryDx=0;entryDy=0;" edge="1" parent="1" source="1w_yLTOK1MW38-RyeeTR-1" target="1w_yLTOK1MW38-RyeeTR-14">
          <mxGeometry relative="1" as="geometry" />
        </mxCell>
        <mxCell id="1w_yLTOK1MW38-RyeeTR-1" value="&lt;font style=&quot;font-size: 14px&quot;&gt;省区渠道负责人&lt;br&gt;审批&lt;br&gt;&lt;/font&gt;" style="rounded=0;whiteSpace=wrap;html=1;fillColor=#fff2cc;strokeColor=#d6b656;" vertex="1" parent="1">
          <mxGeometry x="370" y="180" width="120" height="60" as="geometry" />
        </mxCell>
        <mxCell id="1w_yLTOK1MW38-RyeeTR-9" style="edgeStyle=orthogonalEdgeStyle;rounded=0;orthogonalLoop=1;jettySize=auto;html=1;exitX=1;exitY=0.5;exitDx=0;exitDy=0;entryX=0;entryY=0.5;entryDx=0;entryDy=0;" edge="1" parent="1" source="1w_yLTOK1MW38-RyeeTR-3" target="1w_yLTOK1MW38-RyeeTR-7">
          <mxGeometry relative="1" as="geometry" />
        </mxCell>
        <mxCell id="1w_yLTOK1MW38-RyeeTR-3" value="" style="ellipse;whiteSpace=wrap;html=1;aspect=fixed;" vertex="1" parent="1">
          <mxGeometry x="100" y="195" width="30" height="30" as="geometry" />
        </mxCell>
        <mxCell id="1w_yLTOK1MW38-RyeeTR-11" style="edgeStyle=orthogonalEdgeStyle;rounded=0;orthogonalLoop=1;jettySize=auto;html=1;exitX=1;exitY=0.5;exitDx=0;exitDy=0;entryX=0;entryY=0.5;entryDx=0;entryDy=0;" edge="1" parent="1" source="1w_yLTOK1MW38-RyeeTR-5" target="1w_yLTOK1MW38-RyeeTR-10">
          <mxGeometry relative="1" as="geometry" />
        </mxCell>
        <mxCell id="1w_yLTOK1MW38-RyeeTR-16" style="edgeStyle=orthogonalEdgeStyle;rounded=0;orthogonalLoop=1;jettySize=auto;html=1;exitX=0.5;exitY=1;exitDx=0;exitDy=0;entryX=1;entryY=0.5;entryDx=0;entryDy=0;" edge="1" parent="1" source="1w_yLTOK1MW38-RyeeTR-5" target="1w_yLTOK1MW38-RyeeTR-14">
          <mxGeometry relative="1" as="geometry" />
        </mxCell>
        <mxCell id="1w_yLTOK1MW38-RyeeTR-5" value="&lt;font style=&quot;font-size: 14px&quot;&gt;总部渠道总负责人&lt;br&gt;审批&lt;br&gt;&lt;/font&gt;" style="rounded=0;whiteSpace=wrap;html=1;fillColor=#fff2cc;strokeColor=#d6b656;" vertex="1" parent="1">
          <mxGeometry x="550" y="180" width="120" height="60" as="geometry" />
        </mxCell>
        <mxCell id="1w_yLTOK1MW38-RyeeTR-8" style="edgeStyle=orthogonalEdgeStyle;rounded=0;orthogonalLoop=1;jettySize=auto;html=1;exitX=1;exitY=0.5;exitDx=0;exitDy=0;entryX=0;entryY=0.5;entryDx=0;entryDy=0;" edge="1" parent="1" source="1w_yLTOK1MW38-RyeeTR-7" target="1w_yLTOK1MW38-RyeeTR-1">
          <mxGeometry relative="1" as="geometry" />
        </mxCell>
        <mxCell id="1w_yLTOK1MW38-RyeeTR-7" value="通过API调用提交请求" style="rounded=0;whiteSpace=wrap;html=1;fillColor=#dae8fc;strokeColor=#6c8ebf;" vertex="1" parent="1">
          <mxGeometry x="190" y="180" width="120" height="60" as="geometry" />
        </mxCell>
        <mxCell id="1w_yLTOK1MW38-RyeeTR-13" style="edgeStyle=orthogonalEdgeStyle;rounded=0;orthogonalLoop=1;jettySize=auto;html=1;exitX=1;exitY=0.5;exitDx=0;exitDy=0;entryX=0;entryY=0.5;entryDx=0;entryDy=0;" edge="1" parent="1" source="1w_yLTOK1MW38-RyeeTR-10" target="1w_yLTOK1MW38-RyeeTR-12">
          <mxGeometry relative="1" as="geometry" />
        </mxCell>
        <mxCell id="1w_yLTOK1MW38-RyeeTR-10" value="&lt;font style=&quot;font-size: 14px&quot;&gt;知会总部系统实施&lt;/font&gt;" style="rounded=0;whiteSpace=wrap;html=1;fillColor=#f5f5f5;strokeColor=#666666;fontColor=#333333;" vertex="1" parent="1">
          <mxGeometry x="730" y="180" width="120" height="60" as="geometry" />
        </mxCell>
        <mxCell id="1w_yLTOK1MW38-RyeeTR-12" value="" style="ellipse;whiteSpace=wrap;html=1;aspect=fixed;" vertex="1" parent="1">
          <mxGeometry x="910" y="195" width="30" height="30" as="geometry" />
        </mxCell>
        <mxCell id="1w_yLTOK1MW38-RyeeTR-14" value="拒绝时回调的API" style="rounded=0;whiteSpace=wrap;html=1;fillColor=#dae8fc;strokeColor=#6c8ebf;" vertex="1" parent="1">
          <mxGeometry x="190" y="300" width="120" height="60" as="geometry" />
        </mxCell>
        <mxCell id="1w_yLTOK1MW38-RyeeTR-17" value="拒绝时回调" style="text;html=1;align=center;verticalAlign=middle;resizable=0;points=[];autosize=1;fontColor=#FF0000;" vertex="1" parent="1">
          <mxGeometry x="420" y="270" width="80" height="20" as="geometry" />
        </mxCell>
        <mxCell id="1w_yLTOK1MW38-RyeeTR-18" value="拒绝时回调" style="text;html=1;align=center;verticalAlign=middle;resizable=0;points=[];autosize=1;fontColor=#FF0000;" vertex="1" parent="1">
          <mxGeometry x="600" y="270" width="80" height="20" as="geometry" />
        </mxCell>
        <mxCell id="1w_yLTOK1MW38-RyeeTR-19" value="撤回时回调API" style="rounded=0;whiteSpace=wrap;html=1;fillColor=#dae8fc;strokeColor=#6c8ebf;" vertex="1" parent="1">
          <mxGeometry x="190" y="420" width="120" height="60" as="geometry" />
        </mxCell>
        <mxCell id="1w_yLTOK1MW38-RyeeTR-20" value="" style="endArrow=classic;html=1;fontColor=#FF0000;entryX=1;entryY=0.5;entryDx=0;entryDy=0;edgeStyle=orthogonalEdgeStyle;" edge="1" parent="1" target="1w_yLTOK1MW38-RyeeTR-19">
          <mxGeometry width="50" height="50" relative="1" as="geometry">
            <mxPoint x="340" y="210" as="sourcePoint" />
            <mxPoint x="460" y="300" as="targetPoint" />
            <Array as="points">
              <mxPoint x="340" y="450" />
            </Array>
          </mxGeometry>
        </mxCell>
        <mxCell id="1w_yLTOK1MW38-RyeeTR-21" value="撤回" style="text;html=1;align=center;verticalAlign=middle;resizable=0;points=[];autosize=1;fontColor=#FF0000;" vertex="1" parent="1">
          <mxGeometry x="330" y="270" width="40" height="20" as="geometry" />
        </mxCell>
        <mxCell id="1w_yLTOK1MW38-RyeeTR-22" value="" style="endArrow=classic;html=1;fontColor=#FF0000;edgeStyle=orthogonalEdgeStyle;entryX=1;entryY=0.5;entryDx=0;entryDy=0;" edge="1" parent="1" target="1w_yLTOK1MW38-RyeeTR-19">
          <mxGeometry width="50" height="50" relative="1" as="geometry">
            <mxPoint x="520" y="210" as="sourcePoint" />
            <mxPoint x="320" y="450" as="targetPoint" />
            <Array as="points">
              <mxPoint x="520" y="450" />
            </Array>
          </mxGeometry>
        </mxCell>
        <mxCell id="1w_yLTOK1MW38-RyeeTR-24" value="撤回" style="text;html=1;align=center;verticalAlign=middle;resizable=0;points=[];autosize=1;fontColor=#FF0000;" vertex="1" parent="1">
          <mxGeometry x="510" y="270" width="40" height="20" as="geometry" />
        </mxCell>
      </root>
    </mxGraphModel>
  </diagram>
</mxfile>
